HIERARCHY
ROOT hip
{
	OFFSET 0.000000 0.000000 0.000000 
	CHANNELS 6 Xposition Yposition Zposition Xrotation Zrotation Yrotation
	JOINT abdomen
	{
		OFFSET 0.000000 3.402643 0.000000 
		CHANNELS 3 Xrotation Zrotation Yrotation
		JOINT chest
		{
			OFFSET 0.000000 8.438565 -0.680529 
			CHANNELS 3 Xrotation Zrotation Yrotation
			JOINT neck
			{
				OFFSET 0.000000 10.207942 -0.272212 
				CHANNELS 3 Xrotation Zrotation Yrotation
				JOINT head
				{
					OFFSET 0.000000 3.130431 0.000000 
					CHANNELS 3 Xrotation Zrotation Yrotation
					End Site
					{
						OFFSET 0.000000 3.130435 0.000000 
					}
				}
			}
			JOINT lCollar
			{
				OFFSET 3.470700 6.669187 -0.816635 
				CHANNELS 3 Yrotation Zrotation Xrotation
				JOINT lShldr
				{
					OFFSET 3.198488 0.000000 0.000000 
					CHANNELS 3 Zrotation Yrotation Xrotation
					JOINT lForeArm
					{
						OFFSET 10.139888 0.000000 0.000000 
						CHANNELS 3 Yrotation Zrotation Xrotation
						JOINT lHand
						{
							OFFSET 8.370511 0.000000 0.000000 
							CHANNELS 3 Zrotation Yrotation Xrotation
							End Site
							{
								OFFSET 4.083176 0.000000 0.000000 
							}
						}
					}
				}
			}
			JOINT rCollar
			{
				OFFSET -3.470700 6.669187 -0.816635 
				CHANNELS 3 Yrotation Zrotation Xrotation
				JOINT rShldr
				{
					OFFSET -3.198488 0.000000 0.000000 
					CHANNELS 3 Zrotation Yrotation Xrotation
					JOINT rForeArm
					{
						OFFSET -10.139888 0.000000 0.000000 
						CHANNELS 3 Yrotation Zrotation Xrotation
						JOINT rHand
						{
							OFFSET -8.370511 0.000000 0.000000 
							CHANNELS 3 Zrotation Yrotation Xrotation
							End Site
							{
								OFFSET -4.083176 0.000000 0.000000 
							}
						}
					}
				}
			}
		}
	}
	JOINT lThigh
	{
		OFFSET 5.308129 -1.633274 1.361059 
		CHANNELS 3 Xrotation Zrotation Yrotation
		JOINT lShin
		{
			OFFSET -2.041588 -20.007561 0.000000 
			CHANNELS 3 Xrotation Zrotation Yrotation
			JOINT lFoot
			{
				OFFSET 0.000000 -19.190928 -1.224953 
				CHANNELS 3 Xrotation Yrotation Zrotation
				End Site
				{
					OFFSET 0.000000 -2.449906 4.627600 
				}
			}
		}
	}
	JOINT rThigh
	{
		OFFSET -5.308129 -1.633274 1.361059 
		CHANNELS 3 Xrotation Zrotation Yrotation
		JOINT rShin
		{
			OFFSET 2.041588 -20.007561 0.000000 
			CHANNELS 3 Xrotation Zrotation Yrotation
			JOINT rFoot
			{
				OFFSET 0.000000 -19.190928 -1.224953 
				CHANNELS 3 Xrotation Yrotation Zrotation
				End Site
				{
					OFFSET 0.000000 -2.449906 4.627600 
				}
			}
		}
	}
}
MOTION
Frames: 11
Frame Time: 0.016667
3.558095 53.912575 -4.233788 -7.993363 -6.393045 1.886171 27.751606 7.475245 1.540408 3.543658 1.171476 -2.129193 -7.815757 1.445434 -0.238417 7.479536 -2.431132 1.172891 -18.231045 -9.079062 -0.478945 -66.361038 12.801062 -25.246380 -27.975157 -5.000000 24.520485 -18.807743 4.971208 2.219681 15.264943 9.381868 -0.497843 65.110886 -7.561780 -18.740047 30.126543 5.000000 13.877648 8.363227 -30.000000 2.906420 2.196429 15.358331 6.834167 20.964109 -4.552881 -1.929883 -12.395620 5.242709 0.566815 13.334557 -4.803022 -4.131721 0.449544 3.715195 0.140796 1.553154 -14.798312 9.825894 
3.722905 53.920254 -4.591485 -7.480796 -6.697618 1.258552 27.837721 7.409708 1.621391 3.535091 1.171507 -2.041315 -7.903936 1.513023 -0.248639 7.235330 -2.460217 1.387956 -18.346340 -8.854741 -0.467379 -66.391563 12.869923 -25.205038 -27.896971 -5.000000 24.136824 -18.741085 5.008243 2.159649 15.341449 9.196562 -0.486675 65.177879 -7.240911 -18.235123 30.263960 5.000000 13.455466 8.426439 -30.000000 2.956527 1.532155 15.447793 7.509830 20.817139 -4.630841 -1.950470 -12.163879 5.146858 0.800211 12.667687 -4.909061 -3.792973 -0.184709 3.748023 0.085700 2.070213 -14.231835 10.246068 
3.871978 53.928329 -4.958299 -6.986471 -6.952642 0.678330 27.902658 7.286832 1.688415 3.516321 1.181294 -1.972764 -7.972508 1.561302 -0.255940 7.010162 -2.499022 1.603020 -18.461609 -8.620667 -0.455302 -66.409248 12.935183 -25.144062 -27.802883 -5.000000 23.754745 -18.665672 5.057285 2.076666 15.447118 8.991747 -0.476085 65.301216 -6.945125 -17.770723 30.389893 5.000000 13.097155 8.494436 -30.000000 3.024515 0.887767 15.526192 8.154603 20.572201 -4.698968 -1.941891 -11.796299 4.993146 1.008565 12.145902 -5.057705 -3.495667 -0.730670 3.770304 0.026966 2.298067 -13.586558 10.687847 
4.021053 53.936405 -5.325114 -6.486975 -7.216786 0.098109 27.966581 7.167490 1.744813 3.507334 1.191082 -1.904414 -8.031277 1.599924 -0.261781 6.784701 -2.537786 1.818084 -18.567162 -8.386594 -0.443218 -66.437485 13.009192 -25.090199 -27.712652 -5.000000 23.364895 -18.589085 5.103553 2.015415 15.543063 8.786932 -0.465488 65.426056 -6.647946 -17.297232 30.518221 5.000000 12.727404 8.568025 -30.000000 3.095753 0.243904 15.585502 8.786583 20.342972 -4.736905 -1.939511 -11.470922 4.900083 1.206923 11.616450 -5.203748 -3.197464 -1.288096 3.825306 -0.004359 2.560394 -12.943457 11.168447 
4.128210 53.961567 -5.689398 -6.115331 -7.568312 -0.207150 28.003933 7.238441 1.829298 3.507704 1.210626 -1.845826 -8.041311 1.598462 -0.271433 6.622816 -2.576686 1.915639 -18.683357 -8.259796 -0.436666 -66.366432 13.038536 -24.986866 -27.654682 -5.000000 22.973246 -18.549114 5.156904 1.846020 15.590458 8.611382 -0.456403 65.578323 -6.442639 -16.997820 30.634693 5.000000 12.546100 8.685438 -30.000000 3.175880 -0.312774 15.828176 9.149137 19.979746 -4.785387 -1.946140 -10.973392 4.756576 1.317537 11.493531 -5.205199 -3.111294 -1.149356 3.868861 -0.005571 2.072694 -12.375504 11.523016 
4.235366 53.986729 -6.053679 -5.738545 -7.919596 -0.523406 28.040922 7.300546 1.909652 3.498549 1.220408 -1.787240 -8.051078 1.598463 -0.271433 6.470219 -2.625333 2.013632 -18.789732 -8.123245 -0.429609 -66.288116 13.075704 -24.892242 -27.582773 -5.000000 22.591099 -18.498924 5.213347 1.686836 15.628039 8.426082 -0.446808 65.731865 -6.230318 -16.700264 30.741205 5.000000 12.364816 8.809264 -30.000000 3.244594 -0.869652 16.041893 9.507329 19.633280 -4.805714 -1.921400 -10.482379 4.634233 1.461650 11.352756 -5.222498 -3.048699 -1.012806 3.918184 0.051736 1.594381 -11.789933 11.890565 
4.318564 54.026249 -6.408776 -5.445114 -8.348993 -0.701609 28.071020 7.510053 2.020309 3.508519 1.239948 -1.738416 -8.040824 1.551646 -0.254480 6.367196 -2.674000 2.091668 -18.866318 -8.097133 -0.417569 -66.153015 13.093641 -24.784739 -27.519495 -5.000000 22.215990 -18.433676 5.229485 1.502021 15.685562 8.289540 -0.439734 65.852661 -6.086232 -16.492889 30.819590 5.000000 12.288114 8.925317 -30.000000 3.325317 -1.348196 16.377510 9.708288 19.209118 -4.852317 -1.903829 -9.906043 4.498381 1.552492 11.456811 -5.143538 -3.082756 -0.418831 3.975286 0.083739 0.845428 -11.276267 12.105309 
4.377801 54.080120 -6.754688 -5.247067 -8.866457 -0.741732 28.064714 7.858557 2.156104 3.518075 1.249712 -1.728649 -8.020917 1.464745 -0.241337 6.343193 -2.732469 2.140895 -18.896124 -8.165400 -0.421085 -65.954643 13.082253 -24.674641 -27.447515 -5.000000 21.865120 -18.352068 5.217916 1.296675 15.753016 8.172501 -0.433668 65.950409 -6.001569 -16.388121 30.884531 5.000000 12.295785 9.040895 -30.000000 3.382101 -1.778073 16.800737 9.746785 18.746012 -4.854435 -1.826783 -9.270496 4.404256 1.672408 11.769980 -4.967847 -3.252919 0.634560 4.044450 0.168593 -0.090394 -10.891645 12.132338 
4.437043 54.133991 -7.100600 -5.038512 -9.383907 -0.783452 28.069059 8.228447 2.291766 3.527637 1.269243 -1.718883 -7.991264 1.377844 -0.228194 6.318614 -2.790914 2.199413 -18.935701 -8.233665 -0.426000 -65.757568 13.083204 -24.571838 -27.382818 -5.000000 21.511335 -18.270449 5.216275 1.089117 15.810719 8.055463 -0.427600 66.037781 -5.916110 -16.273233 30.936348 5.000000 12.315089 9.155708 -30.000000 3.436425 -2.187580 17.238396 9.794271 18.272621 -4.892424 -1.764591 -8.643829 4.289302 1.762108 12.097294 -4.794640 -3.431734 1.698102 4.107143 0.246359 -1.087741 -10.499449 12.197742 
4.446017 54.198071 -7.431388 -4.998732 -9.970007 -0.685632 28.040009 8.741102 2.465499 3.528275 1.259489 -1.679827 -7.961523 1.261976 -0.210669 6.364975 -2.829910 2.219396 -18.899117 -8.376788 -0.442696 -65.544403 13.086878 -24.477629 -27.361347 -5.000000 21.153412 -18.185978 5.138207 0.834423 15.849268 7.987191 -0.422702 66.119331 -5.897542 -16.246735 30.935904 5.000000 12.423717 9.238829 -30.000000 3.444095 -2.460967 17.771742 9.618486 17.695478 -4.853137 -1.721609 -7.957881 4.242704 1.720130 12.823975 -4.548756 -3.852926 3.502269 4.174096 0.390269 -2.002482 -10.328484 11.910542 
4.454993 54.262150 -7.762174 -4.951321 -10.546335 -0.586100 28.013422 9.259398 2.651892 3.538671 1.249734 -1.650535 -7.931850 1.155764 -0.194603 6.421075 -2.868905 2.238901 -18.870899 -8.513325 -0.449745 -65.321938 13.094093 -24.381527 -27.327015 -5.000000 20.803099 -18.111013 5.061104 0.579494 15.887821 7.918917 -0.419173 66.202065 -5.882977 -16.230093 30.944948 5.000000 12.531025 9.321271 -30.000000 3.454547 -2.734509 18.283966 9.438841 17.143431 -4.834377 -1.654187 -7.330355 4.190830 1.690527 13.537077 -4.294686 -4.269624 5.321804 4.225859 0.536643 -2.913923 -10.202149 11.650041 
